<svg xmlns="http://www.w3.org/2000/svg" width="91" height="90" fill="none">
  <rect width="90" height="90" x=".5" fill="#FFF1E4" rx="45"/>
  <g clip-path="url(#a)">
    <path fill="#FF9437" d="M45.999 23.479c1.99 0 3.844.973 4.98 2.598l.218.333L68.1 54.635a6.07 6.07 0 0 1-4.806 9.09l-.406.017H29.086a6.07 6.07 0 0 1-5.379-8.75l.207-.386 16.895-28.204A6.072 6.072 0 0 1 46 23.479Zm.02 27.77-.264.015a2.083 2.083 0 0 0 0 4.138l.244.014.265-.014a2.083 2.083 0 0 0 0-4.138l-.244-.014ZM46 36.667a2.083 2.083 0 0 0-2.069 1.84l-.014.244v8.333l.014.244a2.083 2.083 0 0 0 4.138 0l.014-.244V38.75l-.014-.244a2.083 2.083 0 0 0-2.069-1.84Z"/>
  </g>
  <defs>
    <clipPath id="a">
      <path fill="#fff" d="M21 20h50v50H21z"/>
    </clipPath>
  </defs>
</svg>
