<svg width="14" height="14" viewBox="0 0 14 14" fill="none" xmlns="http://www.w3.org/2000/svg">
<path d="M6.99967 0.333984L7.21567 0.334651L7.42767 0.337318L7.83834 0.348651L8.03767 0.357318L8.42367 0.379984L8.79234 0.410651C11.9823 0.719984 13.2803 2.01798 13.5897 5.20798L13.6203 5.57665L13.643 5.96265C13.6463 6.02798 13.6497 6.09465 13.6517 6.16198L13.663 6.57265L13.6663 7.00065L13.663 7.42865L13.6517 7.83932L13.643 8.03865L13.6203 8.42465L13.5897 8.79332C13.2803 11.9833 11.9823 13.2813 8.79234 13.5907L8.42367 13.6213L8.03767 13.644C7.97234 13.6473 7.90567 13.6507 7.83834 13.6527L7.42767 13.664L6.99967 13.6673L6.57167 13.664L6.16101 13.6527L5.96167 13.644L5.57567 13.6213L5.20701 13.5907C2.01701 13.2813 0.719008 11.9833 0.409674 8.79332L0.379008 8.42465L0.356341 8.03865C0.353098 7.97222 0.350209 7.90578 0.347675 7.83932L0.336341 7.42865C0.334341 7.28865 0.333008 7.14598 0.333008 7.00065L0.333674 6.78465L0.336341 6.57265L0.347675 6.16198L0.356341 5.96265L0.379008 5.57665L0.409674 5.20798C0.719008 2.01798 2.01701 0.719984 5.20701 0.410651L5.57567 0.379984L5.96167 0.357318C6.02701 0.353984 6.09367 0.350651 6.16101 0.348651L6.57167 0.337318C6.71167 0.335318 6.85434 0.333984 6.99967 0.333984ZM6.99967 4.33398C6.82286 4.33398 6.65329 4.40422 6.52827 4.52925C6.40325 4.65427 6.33301 4.82384 6.33301 5.00065V6.33398H4.99967L4.92167 6.33865C4.75294 6.35872 4.59824 6.44246 4.48918 6.57276C4.38012 6.70306 4.32493 6.87009 4.33489 7.03972C4.34485 7.20935 4.4192 7.36877 4.54276 7.48542C4.66632 7.60206 4.82975 7.66713 4.99967 7.66732H6.33301V9.00065L6.33767 9.07865C6.35774 9.24738 6.44148 9.40208 6.57179 9.51114C6.70209 9.6202 6.86912 9.67539 7.03874 9.66543C7.20837 9.65547 7.3678 9.58112 7.48444 9.45756C7.60109 9.33401 7.66615 9.17057 7.66634 9.00065V7.66732H8.99967L9.07767 7.66265C9.2464 7.64258 9.4011 7.55884 9.51016 7.42854C9.61922 7.29824 9.67441 7.13121 9.66446 6.96158C9.6545 6.79195 9.58014 6.63253 9.45659 6.51588C9.33303 6.39924 9.16959 6.33417 8.99967 6.33398H7.66634V5.00065L7.66167 4.92265C7.64257 4.76048 7.56461 4.61097 7.44259 4.50246C7.32057 4.39395 7.16296 4.33401 6.99967 4.33398Z" fill="white"/>
</svg>
