<svg width="18" height="18" viewBox="0 0 18 18" fill="none" xmlns="http://www.w3.org/2000/svg">
<g clip-path="url(#clip0_2129_1332)">
<path d="M6.375 9.75H4.125C3.91789 9.75 3.75 9.91789 3.75 10.125V13.875C3.75 14.0821 3.91789 14.25 4.125 14.25H6.375C6.58211 14.25 6.75 14.0821 6.75 13.875V10.125C6.75 9.91789 6.58211 9.75 6.375 9.75Z" fill="#6339CE"/>
<path d="M13.875 6.75H11.625C11.4179 6.75 11.25 6.91789 11.25 7.125V13.875C11.25 14.0821 11.4179 14.25 11.625 14.25H13.875C14.0821 14.25 14.25 14.0821 14.25 13.875V7.125C14.25 6.91789 14.0821 6.75 13.875 6.75Z" fill="#6339CE"/>
<path d="M10.125 3.75H7.875C7.66789 3.75 7.5 3.91789 7.5 4.125V13.875C7.5 14.0821 7.66789 14.25 7.875 14.25H10.125C10.3321 14.25 10.5 14.0821 10.5 13.875V4.125C10.5 3.91789 10.3321 3.75 10.125 3.75Z" fill="#6339CE"/>
</g>
<defs>
<clipPath id="clip0_2129_1332">
<rect width="12" height="12" fill="white" transform="translate(3 3)"/>
</clipPath>
</defs>
</svg>
