<svg width="15" height="16" viewBox="0 0 15 16" fill="none" xmlns="http://www.w3.org/2000/svg">
<rect y="0.5" width="15" height="15" rx="7.5" fill="#D84010"/>
<g clip-path="url(#clip0_1551_247)">
<path fill-rule="evenodd" clip-rule="evenodd" d="M7.86048 5.56245C8.13116 5.30213 8.49315 5.15836 8.86868 5.16203C9.24421 5.16569 9.60333 5.3165 9.86888 5.58205C10.1344 5.8476 10.2852 6.20672 10.2889 6.58225C10.2926 6.95778 10.1488 7.31976 9.88848 7.59045L8.79248 8.68531L8.18219 8.07616L8.73076 7.52759C8.78386 7.47454 8.82598 7.41155 8.85472 7.34221C8.88347 7.27288 8.89828 7.19857 8.89831 7.12351C8.89833 7.04845 8.88358 6.97413 8.85488 6.90477C8.82618 6.83542 8.7841 6.7724 8.73105 6.71931C8.678 6.66622 8.615 6.62409 8.54567 6.59535C8.47634 6.5666 8.40202 6.55179 8.32697 6.55176C8.25191 6.55174 8.17758 6.56649 8.10823 6.59519C8.03888 6.62389 7.97586 6.66597 7.92276 6.71902L7.37419 7.26816L6.76391 6.65845L7.86048 5.56245ZM5.95648 5.85045L7.05248 4.75388C7.29009 4.50725 7.57448 4.31046 7.88902 4.17501C8.20357 4.03955 8.54195 3.96814 8.8844 3.96496C9.22686 3.96177 9.56651 4.02687 9.88352 4.15646C10.2005 4.28604 10.4885 4.47751 10.7307 4.71967C10.9728 4.96183 11.1643 5.24983 11.2939 5.56684C11.4235 5.88384 11.4886 6.2235 11.4854 6.56595C11.4822 6.90841 11.4108 7.24679 11.2754 7.56133C11.1399 7.87587 10.9431 8.16026 10.6965 8.39788L9.60048 9.49388L11.3228 11.2162C11.4025 11.296 11.4472 11.4041 11.4472 11.5169C11.4471 11.6297 11.4023 11.7379 11.3225 11.8176C11.2427 11.8973 11.1345 11.9421 11.0217 11.942C10.9089 11.942 10.8008 11.8971 10.721 11.8173L3.63076 4.72759C3.55097 4.6478 3.50615 4.53958 3.50615 4.42674C3.50615 4.31389 3.55097 4.20567 3.63076 4.12588C3.71056 4.04609 3.81878 4.00126 3.93162 4.00126C4.04446 4.00126 4.15269 4.04609 4.23248 4.12588L5.95648 5.85045ZM5.06505 7.54988C5.17218 7.65704 5.23236 7.80236 5.23236 7.95388C5.23236 8.1054 5.17218 8.25072 5.06505 8.35788C4.80473 8.62856 4.66096 8.99055 4.66463 9.36608C4.66829 9.74161 4.8191 10.1007 5.08465 10.3663C5.3502 10.6318 5.70932 10.7826 6.08485 10.7863C6.46038 10.79 6.82236 10.6462 7.09305 10.3859C7.20082 10.2818 7.34517 10.2242 7.49499 10.2255C7.64482 10.2268 7.78814 10.2869 7.89409 10.3928C8.00004 10.4988 8.06013 10.6421 8.06143 10.7919C8.06274 10.9418 8.00514 11.0861 7.90105 11.1939C7.66299 11.4386 7.37868 11.6336 7.06463 11.7675C6.75057 11.9015 6.41304 11.9716 6.07163 11.974C5.73022 11.9764 5.39174 11.9109 5.07585 11.7814C4.75997 11.6518 4.47297 11.4608 4.23153 11.2194C3.9901 10.978 3.79903 10.691 3.66944 10.3752C3.53984 10.0593 3.4743 9.72083 3.47662 9.37942C3.47894 9.03801 3.54908 8.70047 3.68296 8.38639C3.81683 8.07232 4.01178 7.78797 4.25648 7.54988C4.36364 7.44275 4.50896 7.38257 4.66048 7.38257C4.812 7.38257 4.95789 7.44275 5.06505 7.54988Z" fill="white"/>
</g>
<defs>
<clipPath id="clip0_1551_247">
<rect width="8" height="8" fill="white" transform="translate(3.5 4)"/>
</clipPath>
</defs>
</svg>
