<svg width="21" height="21" viewBox="0 0 21 21" fill="none" xmlns="http://www.w3.org/2000/svg">
<g clip-path="url(#clip0_2129_1290)">
<path d="M15.1714 11.0905C14.7261 11.0905 14.365 10.7294 14.365 10.284V5.97918C14.365 3.8473 12.6306 2.11289 10.4987 2.11289C8.36684 2.11289 6.63242 3.8473 6.63242 5.97918V10.284C6.63242 10.7294 6.27137 11.0905 5.82598 11.0905C5.38059 11.0905 5.01953 10.7294 5.01953 10.284V5.97918C5.01953 2.95793 7.47746 0.5 10.4987 0.5C13.52 0.5 15.9779 2.95793 15.9779 5.97918V10.284C15.9779 10.7294 15.6168 11.0905 15.1714 11.0905Z" fill="#3C3A60"/>
<path d="M10.4994 0.5C10.2263 0.5 9.95785 0.520352 9.69531 0.559141C12.3367 0.949297 14.3704 3.23106 14.3704 5.97918V10.284C14.3704 10.2997 14.3689 10.315 14.368 10.3304C14.3922 10.7541 14.7424 11.0905 15.1721 11.0905C15.6175 11.0905 15.9786 10.7294 15.9786 10.284V5.97918C15.9786 2.95793 13.5207 0.5 10.4994 0.5Z" fill="#9FACBA"/>
<path d="M16.9987 20.4999H3.99996C3.24922 20.4999 2.64062 19.8913 2.64062 19.1405V9.50631C2.64062 8.75557 3.24922 8.14697 3.99996 8.14697H16.9987C17.7494 8.14697 18.358 8.75557 18.358 9.50631V19.1405C18.358 19.8913 17.7495 20.4999 16.9987 20.4999Z" fill="#FEB137"/>
<path d="M16.9988 8.14697H15.3906C16.1414 8.14697 16.75 8.75557 16.75 9.50631V19.1405C16.75 19.8913 16.1414 20.4999 15.3906 20.4999H16.9988C17.7496 20.4999 18.3582 19.8913 18.3582 19.1405V9.50635C18.3582 8.75561 17.7496 8.14697 16.9988 8.14697Z" fill="#F6AB31"/>
<path d="M12.5599 13.2487C12.5599 12.1104 11.6371 11.1875 10.4987 11.1875C9.36031 11.1875 8.4375 12.1104 8.4375 13.2487C8.4375 14.0102 8.85082 14.6748 9.46504 15.0317V17.4085C9.46504 17.9794 9.92781 18.4421 10.4987 18.4421C11.0696 18.4421 11.5324 17.9794 11.5324 17.4085V15.0317C12.1466 14.6749 12.5599 14.0103 12.5599 13.2487Z" fill="#272847"/>
</g>
<defs>
<clipPath id="clip0_2129_1290">
<rect width="20" height="20" fill="white" transform="translate(0.5 0.5)"/>
</clipPath>
</defs>
</svg>
