<svg width="28" height="28" viewBox="0 0 28 28" fill="none" xmlns="http://www.w3.org/2000/svg">
<path fill-rule="evenodd" clip-rule="evenodd" d="M5.24396 16.1662C11.2156 17.2019 17.1874 17.1671 23.159 16.1662V7.86403C23.159 7.76944 23.1284 7.67747 23.0717 7.60186L19.1391 2.35841C19.0566 2.2484 18.927 2.18359 18.7896 2.18359H6.55482C6.20718 2.18359 5.8737 2.32171 5.62789 2.56752C5.38207 2.81344 5.24396 3.14681 5.24396 3.49446V13.5445C5.24396 14.1934 5.0918 14.7434 5.0918 15.1819C5.0918 15.788 5.24396 16.1662 5.24396 16.1662Z" fill="#E7F6ED"/>
<path fill-rule="evenodd" clip-rule="evenodd" d="M2.62207 15.0352V24.47C2.62207 24.8176 2.76018 25.1511 3.006 25.3969C3.25181 25.6428 3.58529 25.7809 3.93293 25.7809H24.0328C24.3805 25.7809 24.7139 25.6428 24.9598 25.3969C25.2056 25.1511 25.3437 24.8176 25.3437 24.47C25.3437 22.7957 25.3437 19.1531 25.3437 17.4788C25.3437 17.1312 25.2056 16.7977 24.9598 16.5519C24.7139 16.3061 24.3805 16.168 24.0328 16.168H4.36992C3.81244 16.168 2.62207 15.0352 2.62207 15.0352Z" fill="#1FB35B"/>
<path fill-rule="evenodd" clip-rule="evenodd" d="M3.93293 16.1647C3.53401 16.1647 3.24279 16.0029 3.02844 15.8036C2.82677 15.6161 2.62207 15.2857 2.62207 14.8538C2.62207 14.5767 2.76018 14.1727 3.006 13.9269C3.25181 13.6811 3.58529 13.543 3.93293 13.543H5.24379V16.1647C5.24379 16.1647 5.35611 16.1647 3.93293 16.1647Z" fill="#198043"/>
<path fill-rule="evenodd" clip-rule="evenodd" d="M18.7891 2.18359V6.55317C18.7891 6.90081 18.9272 7.23429 19.173 7.4801C19.4188 7.72592 19.7522 7.86403 20.0999 7.86403H23.1585C23.1585 7.76944 23.1279 7.67747 23.0712 7.60186L19.1386 2.35841C19.0561 2.2484 18.9265 2.18359 18.7891 2.18359Z" fill="#AFC7C3"/>
<path fill-rule="evenodd" clip-rule="evenodd" d="M9.17625 8.29976H14.8567C15.0978 8.29976 15.2936 8.10397 15.2936 7.86277C15.2936 7.62157 15.0978 7.42578 14.8567 7.42578H9.17625C8.93505 7.42578 8.73926 7.62157 8.73926 7.86277C8.73926 8.10397 8.93505 8.29976 9.17625 8.29976Z" fill="#1FB35B"/>
<path fill-rule="evenodd" clip-rule="evenodd" d="M9.17625 10.9209H19.2261C19.4673 10.9209 19.6631 10.7251 19.6631 10.4839C19.6631 10.2427 19.4673 10.0469 19.2261 10.0469H9.17625C8.93505 10.0469 8.73926 10.2427 8.73926 10.4839C8.73926 10.7251 8.93505 10.9209 9.17625 10.9209Z" fill="#1FB35B"/>
<path fill-rule="evenodd" clip-rule="evenodd" d="M9.17625 13.5459H19.2261C19.4673 13.5459 19.6631 13.3501 19.6631 13.1089C19.6631 12.8677 19.4673 12.6719 19.2261 12.6719H9.17625C8.93505 12.6719 8.73926 12.8677 8.73926 13.1089C8.73926 13.3501 8.93505 13.5459 9.17625 13.5459Z" fill="#1FB35B"/>
<path fill-rule="evenodd" clip-rule="evenodd" d="M16.4171 18.9509L18.1649 23.3204C18.2312 23.4863 18.392 23.5951 18.5705 23.5951C18.7492 23.5951 18.9099 23.4863 18.9763 23.3204L20.7241 18.9509C20.8137 18.727 20.7046 18.4724 20.4806 18.3829C20.2567 18.2933 20.0022 18.4024 19.9127 18.6263L18.5705 21.9816L17.2284 18.6263C17.1389 18.4024 16.8844 18.2933 16.6605 18.3829C16.4366 18.4724 16.3275 18.727 16.4171 18.9509Z" fill="white"/>
<path fill-rule="evenodd" clip-rule="evenodd" d="M9.64439 18.3516H9.3947C8.18807 18.3516 7.20996 19.3297 7.20996 20.5363V21.4103C7.20996 22.6169 8.18807 23.595 9.3947 23.595H9.64439C10.4239 23.595 11.1317 23.1403 11.4558 22.4314C11.501 22.3326 11.5099 22.3139 11.5389 22.2495C11.6534 21.9955 11.5152 21.7637 11.3512 21.6813C11.0773 21.5436 10.8288 21.6961 10.7441 21.8862C10.7185 21.9438 10.661 22.0681 10.661 22.0681C10.479 22.4659 10.0819 22.7211 9.64439 22.7211H9.3947C8.67068 22.7211 8.08383 22.1342 8.08383 21.4103V20.5363C8.08383 19.8124 8.67068 19.2254 9.3947 19.2254H9.64439C10.0819 19.2254 10.479 19.4807 10.661 19.8785C10.661 19.8785 10.7143 19.9978 10.7441 20.0604C10.8754 20.3356 11.1859 20.3747 11.3822 20.2472C11.5201 20.1574 11.6503 19.9406 11.5389 19.697C11.4558 19.5152 11.4558 19.5152 11.4558 19.5152C11.1317 18.8063 10.4239 18.3516 9.64439 18.3516Z" fill="white"/>
<path fill-rule="evenodd" clip-rule="evenodd" d="M12.2354 22.0684V22.285C12.2354 22.6324 12.3734 22.9657 12.619 23.2113C12.8647 23.457 13.1978 23.595 13.5453 23.595H14.5302C14.8776 23.595 15.2108 23.457 15.4565 23.2113C15.7022 22.9657 15.8402 22.6324 15.8402 22.285C15.8402 22.2263 15.8402 22.168 15.8402 22.1111C15.8402 21.5751 15.5139 21.0932 15.0162 20.894L13.4273 20.2585C13.2352 20.1816 13.1092 19.9956 13.1092 19.7887V19.6624C13.1092 19.5465 13.1553 19.4354 13.2372 19.3535C13.3192 19.2715 13.4302 19.2254 13.5461 19.2254H14.5294C14.6452 19.2254 14.7564 19.2715 14.8383 19.3535C14.9202 19.4354 14.9662 19.5465 14.9662 19.6624V19.8782C14.9662 20.0016 15.0208 20.1132 15.0756 20.1698C15.1609 20.2666 15.2834 20.3179 15.4032 20.3179C15.6159 20.3179 15.8402 20.1536 15.8402 19.8782V19.6624C15.8402 19.3148 15.7021 18.9813 15.4563 18.7355C15.2104 18.4897 14.877 18.3516 14.5294 18.3516H13.5462C13.1985 18.3516 12.8651 18.4897 12.6193 18.7355C12.3735 18.9813 12.2354 19.3148 12.2354 19.6624V19.7887C12.2354 20.3529 12.5789 20.8603 13.1027 21.0699L14.6916 21.7055C14.8575 21.7718 14.9662 21.9325 14.9662 22.1111V22.285C14.9662 22.4007 14.9203 22.5116 14.8385 22.5934C14.7568 22.6752 14.6459 22.7211 14.5302 22.7211H13.5453C13.4296 22.7211 13.3188 22.6752 13.237 22.5934C13.1552 22.5116 13.1092 22.4007 13.1092 22.2851C13.1092 22.285 13.1092 22.285 13.1092 22.0683C13.1092 21.7801 12.8743 21.6285 12.6799 21.6285C12.4955 21.6285 12.2354 21.7714 12.2354 22.0657V22.0684Z" fill="white"/>
</svg>
