<svg width="15" height="16" viewBox="0 0 15 16" fill="none" xmlns="http://www.w3.org/2000/svg">
<rect y="0.5" width="15" height="15" rx="7.5" fill="#FECC04"/>
<g clip-path="url(#clip0_1551_345)">
<path d="M7.5 4C5.29083 4 3.5 5.79083 3.5 8C3.5 10.2092 5.29083 12 7.5 12C9.70917 12 11.5 10.2092 11.5 8C11.5 5.79083 9.70917 4 7.5 4ZM4.96155 9.57609C4.92138 9.51139 4.88345 9.44492 4.8483 9.377C4.64695 8.99059 4.52772 8.55547 4.51353 8.09358C4.46142 6.40327 5.83697 4.99673 7.52794 5.01222C8.01436 5.01658 8.47288 5.13742 8.87752 5.3478C8.94544 5.38313 9.01175 5.42105 9.07644 5.46137C9.1058 5.47961 9.11064 5.52042 9.08628 5.54478L5.04511 9.58594C5.02075 9.6103 4.97994 9.60545 4.96155 9.57609ZM7.5 10.9879C7.00325 10.9879 6.53489 10.8666 6.123 10.6522C6.05508 10.6169 5.98845 10.579 5.92375 10.5388C5.89422 10.5204 5.88939 10.4796 5.91375 10.4552L9.9552 6.41375C9.97956 6.38939 10.0204 6.39423 10.0388 6.42375C10.079 6.48845 10.1169 6.55508 10.1522 6.623C10.3666 7.03537 10.4879 7.50325 10.4879 8C10.4879 9.65014 9.15063 10.9879 7.5 10.9879Z" fill="white"/>
<path d="M9.78758 4.71875C10.6664 5.45234 11.2254 6.55605 11.2254 7.79042C11.2254 9.99959 9.43458 11.7904 7.22541 11.7904C6.37469 11.7904 5.58575 11.5247 4.9375 11.0718C5.63141 11.6515 6.52488 12.0002 7.49967 12.0002C9.70884 12.0002 11.4997 10.2093 11.4997 8.00016C11.4997 6.64187 10.8227 5.44169 9.78758 4.71875Z" fill="white"/>
</g>
<defs>
<clipPath id="clip0_1551_345">
<rect width="8" height="8" fill="white" transform="translate(3.5 4)"/>
</clipPath>
</defs>
</svg>
