<svg width="46" height="46" viewBox="0 0 46 46" fill="none" xmlns="http://www.w3.org/2000/svg">
<g clip-path="url(#clip0_4421_6196)">
<path d="M22.9331 45.8666C35.5988 45.8666 45.8664 35.599 45.8664 22.9333C45.8664 10.2676 35.5988 0 22.9331 0C10.2674 0 -0.000244141 10.2676 -0.000244141 22.9333C-0.000244141 35.599 10.2674 45.8666 22.9331 45.8666Z" fill="#3568F8"/>
<path d="M42.1427 10.4258L21.8611 31.4241L21.8969 33.6816H22.8286L44.7944 15.9799C44.1494 14.0091 43.2536 12.1099 42.1427 10.4258Z" fill="#1E42A9"/>
<path d="M45.4379 9.42036L41.3887 5.40703C40.8512 4.86953 39.9554 4.86953 39.3821 5.40703L22.0746 23.2879L14.5854 15.9062C14.0479 15.3687 13.1521 15.3687 12.5787 15.9062L8.99541 19.4537C8.45791 19.9912 8.45791 20.887 8.99541 21.4245L20.9637 33.2854C21.2862 33.6079 21.7162 33.7154 22.1462 33.6795C22.5762 33.7154 23.0062 33.6079 23.3287 33.2854L45.4379 11.427C45.9754 10.8537 45.9754 9.95786 45.4379 9.42036Z" fill="#F2F1EF"/>
<path d="M23.3266 33.286L45.4358 11.4277C45.9733 10.8902 45.9733 9.99432 45.4358 9.45682L44.7908 8.84766L22.1083 31.136L9.5666 18.9168L9.0291 19.4543C8.4916 19.9918 8.4916 20.8876 9.0291 21.4251L20.9974 33.286C21.3199 33.6085 21.7499 33.716 22.1799 33.6801C22.5741 33.716 23.0041 33.6085 23.3266 33.286Z" fill="#E6E5E3"/>
</g>
<defs>
<clipPath id="clip0_4421_6196">
<rect width="45.8667" height="45.8666" fill="white"/>
</clipPath>
</defs>
</svg>
