<svg width="56" height="56" viewBox="0 0 56 56" fill="none" xmlns="http://www.w3.org/2000/svg">
<g clip-path="url(#clip0_3017_3562)">
<path d="M28 56C43.464 56 56.0001 43.464 56.0001 28C56.0001 12.536 43.464 0 28 0C12.536 0 0 12.536 0 28C0 43.464 12.536 56 28 56Z" fill="#28A745"/>
<path d="M51.4539 12.7305L26.6914 38.368L26.7352 41.1243H27.8727L54.6914 19.5117C53.9039 17.1055 52.8102 14.7867 51.4539 12.7305Z" fill="#198C34"/>
<path d="M55.4782 11.5055L50.5344 6.60547C49.8782 5.94922 48.7844 5.94922 48.0844 6.60547L26.9531 28.4367L17.8094 19.4242C17.1531 18.768 16.0594 18.768 15.3594 19.4242L10.9844 23.7555C10.3281 24.4117 10.3281 25.5055 10.9844 26.1617L25.5969 40.643C25.9906 41.0367 26.5156 41.168 27.0406 41.1242C27.5656 41.168 28.0906 41.0367 28.4844 40.643L55.4782 13.9555C56.1344 13.2555 56.1344 12.1617 55.4782 11.5055Z" fill="#F2F1EF"/>
<path d="M28.4797 40.6422L55.4735 13.9547C56.1297 13.2984 56.1297 12.2047 55.4735 11.5484L54.686 10.8047L26.9922 38.0172L11.6797 23.0984L11.0234 23.7547C10.3672 24.4109 10.3672 25.5047 11.0234 26.1609L25.636 40.6422C26.0297 41.0359 26.5547 41.1672 27.0797 41.1234C27.561 41.1672 28.086 41.0359 28.4797 40.6422Z" fill="#E6E5E3"/>
</g>
<defs>
<clipPath id="clip0_3017_3562">
<rect width="56.0001" height="56" fill="white"/>
</clipPath>
</defs>
</svg>
