<svg width="18" height="18" fill="none" xmlns="http://www.w3.org/2000/svg"><path fill-rule="evenodd" clip-rule="evenodd" d="M9.2 2.4A6.3 6.3 0 0 0 3 7a1 1 0 0 0-.4 0 2 2 0 0 0-1.3 1.2 3.7 3.7 0 0 0 .6 3.8c.4.4.9.5 1.3.4.7-.2 1-.3 1-.9l-.5-3a5.3 5.3 0 0 1 10.6 0l-.3 2.1c-.7 2-2.5 3.3-4.5 3.5H8.1c-.3 0-.6.3-.6.6v.3c0 .4.3.7.6.7H10c.3 0 .6-.3.6-.7v-.1a6.3 6.3 0 0 0 3.7-2.7l.6.2c.4.1.9 0 1.3-.4s.7-1 .8-1.8c.1-.8 0-1.5-.2-2-.3-.6-.7-1-1.1-1l-.6-.2a6.3 6.3 0 0 0-5.8-4.5Z" fill="#FF9437"/><path fill-rule="evenodd" clip-rule="evenodd" d="M11.2 7.9a.8.8 0 1 1 0 1.6.8.8 0 0 1 0-1.6ZM9 7.9a.8.8 0 1 1 0 1.6.8.8 0 0 1 0-1.6Zm-2.2 0a.8.8 0 1 1 0 1.6.8.8 0 0 1 0-1.6ZM9 4.4a4.3 4.3 0 0 0-4.3 4.3c0 1.2.4 2.2 1.1 3l-.2 1.1c-.1.4.2.7.5.5l1.1-.6L9 13c2.4 0 4.3-1.8 4.3-4.3S11.4 4.4 9 4.4Z" fill="#FF9437"/></svg>