<svg width="32" height="32" viewBox="0 0 32 32" fill="none" xmlns="http://www.w3.org/2000/svg">
<path d="M18.667 4V9.33333C18.667 9.68696 18.8075 10.0261 19.0575 10.2761C19.3076 10.5262 19.6467 10.6667 20.0003 10.6667H25.3337M18.667 4H9.33366C8.62641 4 7.94814 4.28095 7.44804 4.78105C6.94794 5.28115 6.66699 5.95942 6.66699 6.66667V25.3333C6.66699 26.0406 6.94794 26.7189 7.44804 27.219C7.94814 27.719 8.62641 28 9.33366 28H22.667C23.3742 28 24.0525 27.719 24.5526 27.219C25.0527 26.7189 25.3337 26.0406 25.3337 25.3333V10.6667M18.667 4L25.3337 10.6667M16.0003 14.6667V22.6667M16.0003 14.6667L12.667 18M16.0003 14.6667L19.3337 18" stroke="#666B78" stroke-width="1.5" stroke-linecap="round" stroke-linejoin="round"/>
</svg>
