<svg width="20" height="20" viewBox="0 0 20 20" fill="none" xmlns="http://www.w3.org/2000/svg">
<g clip-path="url(#clip0_3696_4099)">
<path d="M6.96498 7.32539C6.96295 7.32004 6.96088 7.31469 6.95865 7.30938C6.8501 7.04543 6.59568 6.875 6.31037 6.875C6.31014 6.875 6.30986 6.875 6.30959 6.875C6.02397 6.87531 5.76955 7.04633 5.66147 7.3107C5.65967 7.31508 5.65795 7.31949 5.65627 7.32391L3.74947 12.3305C3.63428 12.633 3.78607 12.9715 4.0885 13.0866C4.39092 13.2018 4.72943 13.05 4.84459 12.7476L5.17576 11.8781H7.43061L7.75814 12.7459C7.8467 12.9806 8.06963 13.1252 8.30643 13.1252C8.37518 13.1252 8.4451 13.113 8.51322 13.0873C8.81596 12.973 8.96881 12.635 8.85451 12.3322L6.96498 7.32539ZM5.62209 10.7063L6.30834 8.90441L6.98834 10.7063H5.62209Z" fill="#4E5260"/>
<path d="M15 6.875C14.6764 6.875 14.4141 7.13734 14.4141 7.46094V12.5391C14.4141 12.8627 14.6764 13.125 15 13.125C15.3236 13.125 15.5859 12.8627 15.5859 12.5391V7.46094C15.5859 7.13734 15.3236 6.875 15 6.875Z" fill="#4E5260"/>
<path d="M11.6171 6.875H10.2031C10.0474 6.875 9.89809 6.93699 9.78813 7.04727C9.67863 7.15711 9.61719 7.3059 9.61719 7.46094V12.5391C9.61719 12.8627 9.87953 13.125 10.2031 13.125C10.5267 13.125 10.7891 12.8627 10.7891 12.5391V10.9161C11.0866 10.9145 11.4268 10.913 11.6171 10.913C12.7459 10.913 13.6642 10.0073 13.6642 8.89402C13.6642 7.78074 12.7459 6.875 11.6171 6.875ZM11.6171 9.74109C11.4275 9.74109 11.0918 9.74258 10.7957 9.7441C10.7941 9.43813 10.7917 8.36621 10.7908 8.04688H11.6171C12.0915 8.04688 12.4923 8.4348 12.4923 8.89398C12.4923 9.35316 12.0915 9.74109 11.6171 9.74109Z" fill="#4E5260"/>
<path d="M19.707 11.718L18.3998 10.9633C18.4413 10.6247 18.4616 10.3068 18.4616 9.99996C18.4616 9.69316 18.4413 9.37516 18.3998 9.0366L19.707 8.28191C19.8416 8.20422 19.9398 8.07625 19.98 7.92613C20.0203 7.77602 19.9992 7.61609 19.9215 7.48152L17.1418 2.66691C16.98 2.38668 16.6218 2.2907 16.3414 2.45242L15.0397 3.20398C14.5261 2.8241 13.9655 2.5025 13.3656 2.24355V0.734375C13.3656 0.410781 13.1033 0.148438 12.7797 0.148438H7.22035C6.89676 0.148438 6.63442 0.410781 6.63442 0.734375V2.24355C6.03461 2.50246 5.47403 2.82414 4.96035 3.20398L3.65867 2.45246C3.5241 2.37477 3.36422 2.35371 3.21407 2.39391C3.06395 2.43414 2.93598 2.5323 2.85828 2.66691L0.0785967 7.48144C-0.0832002 7.76168 0.0128154 8.12004 0.29305 8.28184L1.60016 9.03652C1.55867 9.37512 1.53836 9.69309 1.53836 9.99992C1.53836 10.3068 1.55867 10.6247 1.60016 10.9633L0.29305 11.718C0.0128154 11.8798 -0.0832002 12.2382 0.0785967 12.5184L2.85824 17.3329C2.93594 17.4675 3.06391 17.5657 3.21403 17.6059C3.36414 17.6461 3.52403 17.6251 3.65864 17.5474L4.96035 16.7959C5.47399 17.1757 6.03461 17.4974 6.63442 17.7563V19.2655C6.63442 19.5891 6.89676 19.8514 7.22035 19.8514H12.7797C13.1033 19.8514 13.3656 19.5891 13.3656 19.2655V17.7563C13.9655 17.4973 14.5261 17.1757 15.0397 16.7959L16.3414 17.5474C16.6218 17.7092 16.98 17.6132 17.1418 17.3329L19.9215 12.5184C19.9992 12.3838 20.0202 12.2239 19.98 12.0738C19.9398 11.9237 19.8416 11.7957 19.707 11.718ZM16.4199 16.2396L15.284 15.5838C15.0727 15.4618 14.808 15.4835 14.6194 15.6382C14.0172 16.1323 13.3285 16.5277 12.5726 16.8133C12.3446 16.8995 12.1938 17.1177 12.1938 17.3614V18.6795H7.80629V17.3614C7.80629 17.1177 7.65543 16.8995 7.42746 16.8133C6.6716 16.5277 5.98297 16.1323 5.38063 15.6382C5.19199 15.4835 4.92731 15.4618 4.71602 15.5838L3.58016 16.2396L1.38645 12.4399L2.52926 11.78C2.74016 11.6583 2.85375 11.4188 2.81461 11.1784C2.74442 10.7473 2.71028 10.3618 2.71028 9.99992C2.71028 9.63797 2.74442 9.2525 2.81461 8.82141C2.85375 8.58105 2.74016 8.34156 2.52926 8.2198L1.38645 7.55996L3.58016 3.76027L4.71602 4.41605C4.92727 4.53801 5.19199 4.51637 5.38063 4.36164C5.98297 3.8675 6.67164 3.47215 7.42746 3.18652C7.65543 3.10035 7.80629 2.88211 7.80629 2.6384V1.32031H12.1938V2.63844C12.1938 2.88215 12.3446 3.10039 12.5726 3.18656C13.3285 3.47219 14.0171 3.86758 14.6194 4.36164C14.808 4.51637 15.0727 4.53805 15.284 4.41609L16.4199 3.76027L18.6137 7.55992L17.4708 8.21977C17.2599 8.34152 17.1463 8.58102 17.1854 8.82137C17.2557 9.25246 17.2898 9.63797 17.2898 9.99988C17.2898 10.3618 17.2556 10.7473 17.1854 11.1784C17.1463 11.4187 17.2599 11.6583 17.4708 11.78L18.6137 12.4398L16.4199 16.2396Z" fill="#4E5260"/>
</g>
<defs>
<clipPath id="clip0_3696_4099">
<rect width="20" height="20" fill="white"/>
</clipPath>
</defs>
</svg>
