<svg width="56" height="56" viewBox="0 0 56 56" fill="none" xmlns="http://www.w3.org/2000/svg">
<rect width="56" height="56" rx="8" fill="url(#paint0_linear_3802_4424)"/>
<path d="M39.531 29.6771L43.6881 28.1782C44.0636 28.0441 44.0636 27.5106 43.6881 27.3765L39.531 25.8776C34.915 24.2147 31.2823 20.5821 29.6195 15.9661L28.1205 11.809C27.9864 11.4335 27.453 11.4335 27.3189 11.809L25.82 15.9661C24.1571 20.5821 20.5245 24.2147 15.9085 25.8776L11.7513 27.3765C11.3759 27.5106 11.3759 28.0441 11.7513 28.1782L15.9085 29.6771C20.5245 31.3399 24.1571 34.9726 25.82 39.5886L27.3189 43.7457C27.453 44.1212 27.9864 44.1212 28.1205 43.7457L29.6195 39.5886C31.2823 34.9726 34.915 31.3399 39.531 29.6771Z" fill="white"/>
<defs>
<linearGradient id="paint0_linear_3802_4424" x1="56" y1="0.500001" x2="5.5" y2="61" gradientUnits="userSpaceOnUse">
<stop stop-color="#00E6FF"/>
<stop offset="0.475839" stop-color="#AEA4FF"/>
<stop offset="1" stop-color="#0847F9"/>
</linearGradient>
</defs>
</svg>
