<svg width="20" height="20" viewBox="0 0 20 20" fill="none" xmlns="http://www.w3.org/2000/svg">
<path d="M15.765 11.0905L17.8436 10.341C18.0313 10.274 18.0313 10.0073 17.8436 9.94022L15.765 9.19075C13.457 8.35932 11.6407 6.54301 10.8093 4.23499L10.0598 2.15643C9.99273 1.96869 9.72602 1.96869 9.65897 2.15643L8.9095 4.23499C8.07807 6.54301 6.26176 8.35932 3.95374 9.19075L1.87518 9.94022C1.68744 10.0073 1.68744 10.274 1.87518 10.341L3.95374 11.0905C6.26176 11.9219 8.07807 13.7382 8.9095 16.0463L9.65897 18.1248C9.72602 18.3126 9.99273 18.3126 10.0598 18.1248L10.8093 16.0463C11.6407 13.7382 13.457 11.9219 15.765 11.0905Z" fill="url(#paint0_linear_3802_4504)"/>
<defs>
<linearGradient id="paint0_linear_3802_4504" x1="12" y1="3.5" x2="6.5" y2="14.5" gradientUnits="userSpaceOnUse">
<stop offset="0.217539" stop-color="#AEA4FF"/>
<stop offset="1" stop-color="#0847F9"/>
</linearGradient>
</defs>
</svg>
