<svg width="91" height="90" viewBox="0 0 91 90" fill="none" xmlns="http://www.w3.org/2000/svg">
<g clip-path="url(#clip0_2670_3715)">
<path d="M45.5 90C70.3529 90 90.5001 69.8528 90.5001 45C90.5001 20.1472 70.3529 0 45.5 0C20.6472 0 0.5 20.1472 0.5 45C0.5 69.8528 20.6472 90 45.5 90Z" fill="#28A745"/>
<path d="M83.1934 20.4595L43.3965 61.6626L43.4668 66.0923H45.2949L88.3965 31.3579C87.1309 27.4907 85.3731 23.7642 83.1934 20.4595Z" fill="#198C34"/>
<path d="M89.6602 18.4907L81.7149 10.6157C80.6602 9.56103 78.9024 9.56103 77.7774 10.6157L43.8164 45.7017L29.1211 31.2173C28.0664 30.1626 26.3086 30.1626 25.1836 31.2173L18.1523 38.1782C17.0977 39.2329 17.0977 40.9907 18.1523 42.0454L41.6367 65.3189C42.2696 65.9517 43.1133 66.1626 43.9571 66.0923C44.8008 66.1626 45.6446 65.9517 46.2774 65.3189L89.6602 22.4282C90.7149 21.3032 90.7149 19.5454 89.6602 18.4907Z" fill="#F2F1EF"/>
<path d="M46.2715 65.3189L89.6544 22.4282C90.7091 21.3735 90.7091 19.6157 89.6544 18.561L88.3887 17.3657L43.8809 61.1001L19.2715 37.1235L18.2168 38.1782C17.1621 39.2329 17.1621 40.9907 18.2168 42.0454L41.7012 65.3189C42.334 65.9517 43.1778 66.1626 44.0215 66.0923C44.795 66.1626 45.6387 65.9517 46.2715 65.3189Z" fill="#E6E5E3"/>
</g>
<defs>
<clipPath id="clip0_2670_3715">
<rect width="90.0001" height="90" fill="white" transform="translate(0.5)"/>
</clipPath>
</defs>
</svg>
