<svg width="16" height="16" viewBox="0 0 16 16" fill="none" xmlns="http://www.w3.org/2000/svg">
<path d="M2.66797 4.66667H13.3346M6.66797 7.33333V11.3333M9.33464 7.33333V11.3333M3.33464 4.66667L4.0013 12.6667C4.0013 13.0203 4.14178 13.3594 4.39183 13.6095C4.64187 13.8595 4.98101 14 5.33464 14H10.668C11.0216 14 11.3607 13.8595 11.6108 13.6095C11.8608 13.3594 12.0013 13.0203 12.0013 12.6667L12.668 4.66667M6.0013 4.66667V2.66667C6.0013 2.48986 6.07154 2.32029 6.19656 2.19526C6.32159 2.07024 6.49116 2 6.66797 2H9.33464C9.51145 2 9.68102 2.07024 9.80604 2.19526C9.93106 2.32029 10.0013 2.48986 10.0013 2.66667V4.66667" stroke="white" stroke-width="1.33333" stroke-linecap="round" stroke-linejoin="round"/>
</svg>
