<svg width="56" height="56" viewBox="0 0 56 56" fill="none" xmlns="http://www.w3.org/2000/svg">
<path d="M30.0041 18.9946C30.1791 19.1696 30.3978 19.2484 30.6253 19.2484C30.8528 19.2484 31.0716 19.1609 31.2466 18.9946L35.0003 15.2409L38.7541 18.9946C38.9291 19.1696 39.1478 19.2484 39.3753 19.2484C39.6028 19.2484 39.8216 19.1609 39.9966 18.9946C40.3378 18.6534 40.3378 18.1021 39.9966 17.7609L36.2428 14.0071L39.9966 10.2534C40.3378 9.91211 40.3378 9.36086 39.9966 9.01961C39.6553 8.67836 39.1041 8.67836 38.7628 9.01961L35.0091 12.7734L31.2553 9.01961C30.9141 8.67836 30.3628 8.67836 30.0216 9.01961C29.6803 9.36086 29.6803 9.91211 30.0216 10.2534L33.7753 14.0071L30.0216 17.7609C29.6803 18.1021 29.6803 18.6534 30.0216 18.9946H30.0041Z" fill="#114BEE"/>
<path d="M54.005 34.0988C53.6813 33.565 53.1213 33.25 52.5 33.25H43.75V23.625C43.75 23.3188 43.6975 23.0125 43.5838 22.7237C45.8588 20.4837 47.25 17.3687 47.25 14C47.25 7.245 41.755 1.75 35 1.75C28.245 1.75 22.75 7.245 22.75 14C22.75 16.5725 23.5638 18.9963 24.9638 21H19.1975C18.9263 21 18.69 20.8862 18.5238 20.685L15.1988 16.695C14.7 16.0912 13.965 15.75 13.1775 15.75H4.375C2.93125 15.75 1.75 16.9312 1.75 18.375V53.375C1.75 53.4538 1.75875 53.5325 1.785 53.6025C1.8025 53.6725 1.82875 53.7337 1.86375 53.795C1.86375 53.8037 1.86375 53.8125 1.8725 53.8212H1.88125C1.91625 53.8825 1.96 53.9438 2.0125 53.9875C2.065 54.04 2.12625 54.0837 2.1875 54.1187C2.23125 54.145 2.275 54.1712 2.3275 54.1888C2.3625 54.1975 2.3975 54.215 2.4325 54.2238C2.49375 54.2325 2.56375 54.2413 2.625 54.2413H41.9738C43.2513 54.2413 44.4325 53.5413 45.0363 52.4125L54.04 35.8312C54.3375 35.28 54.32 34.6325 54.005 34.09V34.0988ZM24.5 14C24.5 8.2075 29.2075 3.5 35 3.5C40.7925 3.5 45.5 8.2075 45.5 14C45.5 18.9875 41.9475 23.3188 37.065 24.2987C36.82 24.3425 36.61 24.4912 36.4875 24.7013L35 27.1775L33.5125 24.7013C33.39 24.4912 33.18 24.3425 32.935 24.2987C30.8 23.87 28.9188 22.8025 27.475 21.315C27.4488 21.2887 27.4313 21.2625 27.405 21.245C25.5938 19.3375 24.5 16.7738 24.5 14ZM43.4963 51.59C43.1988 52.15 42.6125 52.5 41.9738 52.5H4.095L13.5888 35H52.5L43.4963 51.59Z" fill="#114BEE"/>
<path d="M14.875 45.5H24.5C24.9812 45.5 25.375 45.1063 25.375 44.625C25.375 44.1437 24.9812 43.75 24.5 43.75H14.875C14.3937 43.75 14 44.1437 14 44.625C14 45.1063 14.3937 45.5 14.875 45.5Z" fill="#114BEE"/>
<path d="M11.375 49C11.375 49.4813 11.7687 49.875 12.25 49.875H28C28.4813 49.875 28.875 49.4813 28.875 49C28.875 48.5187 28.4813 48.125 28 48.125H12.25C11.7687 48.125 11.375 48.5187 11.375 49Z" fill="#114BEE"/>
</svg>
