<svg xmlns="http://www.w3.org/2000/svg" width="83" height="90" fill="none">
  <g clip-path="url(#a)">
    <path fill="#EAECF6" d="M35.675.366.115 60.353a.745.745 0 0 0 .26 1.021l44.059 26.119c.354.21.81.093 1.02-.261l35.562-59.987a.745.745 0 0 0-.261-1.021L36.695.105a.745.745 0 0 0-1.02.261Z"/>
    <path fill="#3E479B" d="M56.582 85.984 6.607 76.741a.745.745 0 0 1-.595-.865L18.555 7.609a.743.743 0 0 1 .863-.597l49.975 9.243c.403.076.667.46.595.865L57.445 85.39a.743.743 0 0 1-.863.598v-.004Z" opacity=".09"/>
    <path fill="#fff" d="M17.813 5.359 4.906 75.405l51.836 9.551L69.649 14.91 17.813 5.36Z"/>
    <path fill="#F0F3FF" d="M17.678 6.092 5.04 74.672a.745.745 0 0 0 .598.868l50.37 9.281a.745.745 0 0 0 .868-.597l12.636-68.581a.745.745 0 0 0-.597-.868l-50.37-9.281a.745.745 0 0 0-.868.598Z" opacity=".39"/>
    <path fill="#ECF1F7" d="M44.572 13.379 22.39 9.292l.386-2.097a.78.78 0 0 1 .914-.629l20.667 3.81c.41.076.68.47.604.877l-.39 2.126Z" opacity=".07"/>
    <path fill="#D6E0FF" d="M57.777 60.181c7.958-7.957 7.958-20.86 0-28.817-7.958-7.958-20.86-7.958-28.817 0-7.958 7.957-7.958 20.86 0 28.817 7.957 7.958 20.86 7.958 28.817 0Z" opacity=".21"/>
    <path fill="#fff" d="M27.398 47.236a1.287 1.287 0 0 1-1.289-1.288c0-10.28 8.363-18.642 18.642-18.642a1.287 1.287 0 1 1 0 2.577c-8.862 0-16.069 7.207-16.069 16.069 0 .712-.576 1.288-1.288 1.288l.004-.004Z" opacity=".76"/>
    <path fill="#3E479B" d="M43.369 66.796c-11.592 0-21.021-9.43-21.021-21.022 0-11.592 9.43-21.021 21.021-21.021 11.592 0 21.021 9.43 21.021 21.021 0 11.592-9.43 21.022-21.021 21.022Zm0-40.759c-10.883 0-19.733 8.854-19.733 19.733 0 10.88 8.854 19.733 19.733 19.733 10.88 0 19.733-8.854 19.733-19.733 0-10.879-8.854-19.733-19.733-19.733Z"/>
    <path fill="#1852F3" d="M62.103 60.373c.029-.028.065-.052.097-.08a23.665 23.665 0 0 0 4.953-14.523c0-13.134-10.646-23.78-23.78-23.78s-23.78 10.646-23.78 23.78c0 13.133 10.646 23.779 23.78 23.779 5.448 0 10.46-1.836 14.47-4.92l2.75-2.75 1.51-1.51v.004Zm-18.73 5.778c-11.253 0-20.377-9.124-20.377-20.377 0-11.254 9.124-20.378 20.377-20.378 11.254 0 20.377 9.124 20.377 20.378 0 11.253-9.123 20.377-20.377 20.377Z"/>
    <path fill="#3268FF" d="M43.371 69.876c-13.29 0-24.102-10.81-24.102-24.102 0-13.29 10.811-24.101 24.102-24.101 13.29 0 24.101 10.81 24.101 24.101 0 5.38-1.735 10.469-5.02 14.72l-.06.06c-.033.025-.05.037-.065.05l-4.292 4.287a23.87 23.87 0 0 1-14.664 4.985Zm0-47.563c-12.937 0-23.457 10.525-23.457 23.457 0 12.933 10.524 23.458 23.457 23.458 5.198 0 10.13-1.675 14.257-4.84l4.248-4.248c.028-.032.064-.056.096-.08 3.181-4.131 4.86-9.072 4.86-14.29 0-12.936-10.524-23.457-23.457-23.457h-.004Zm0 44.16c-11.415 0-20.7-9.284-20.7-20.699 0-11.414 9.285-20.699 20.7-20.699s20.7 9.285 20.7 20.7c0 11.414-9.285 20.699-20.7 20.699Zm0-40.758c-11.06 0-20.055 9-20.055 20.055 0 11.056 8.999 20.055 20.055 20.055s20.055-8.998 20.055-20.055c0-11.056-8.999-20.055-20.055-20.055Z"/>
    <path fill="#002487" d="m61.513 64.094-.922-.922a.909.909 0 0 1 0-1.284l-2.75 2.75-.044.044a.909.909 0 0 0 0 1.284l1.12 1.12c.37-.62 1.449-1.832 2.596-2.992Z"/>
    <path fill="#4C65BA" d="M60.59 61.884a.909.909 0 0 0 0 1.284l.922.922c1.111-1.123 2.287-2.198 2.947-2.645l-1.07-1.071a.904.904 0 0 0-1.189-.08c-.032.024-.068.048-.096.08l-1.51 1.51h-.004Z"/>
    <path fill="#002487" d="M60.59 61.884a.909.909 0 0 0 0 1.284l.922.922c1.111-1.123 2.287-2.198 2.947-2.645l-1.07-1.071a.904.904 0 0 0-1.189-.08c-.032.024-.068.048-.096.08l-1.51 1.51h-.004Z"/>
    <path fill="#1852F3" d="m81.709 78.174-16.746-16.93c-.06-.06-.245.02-.507.197-.66.447-1.832 1.522-2.947 2.645-1.152 1.164-2.23 2.376-2.597 2.992-.121.2-.165.342-.113.394l16.745 16.93a4.328 4.328 0 0 0 6.165 0 4.44 4.44 0 0 0 0-6.232v.004Z"/>
    <path fill="#5783FF" d="m81.712 78.174-16.746-16.93c-.225-.23-2.133 1.481-3.772 3.172-1.393 1.438 18.815 21.71 20.518 19.99a4.44 4.44 0 0 0 0-6.232Z" opacity=".14"/>
    <path stroke="#F86363" stroke-linecap="round" stroke-linejoin="round" stroke-width="2.5" d="m50.45 40.234-12 12m0-12 12 12"/>
  </g>
  <defs>
    <clipPath id="a">
      <path fill="#fff" d="M.008 0H82.99v90H.008z"/>
    </clipPath>
  </defs>
</svg>
