<svg xmlns="http://www.w3.org/2000/svg" width="30" height="30" viewBox="0 0 30 30"><script/><script/><script/><path fill="#03a9f4" fill-rule="evenodd" stroke="#03a9f4" stroke-width="1" d="m24.963 20.732-1.242-.717c-.954-.55-1.544-.123-1.314.958l.775 3.652a.873.873 0 0 0 1.15.664l3.551-1.154c1.053-.343 1.128-1.066.173-1.617l-1.361-.786c3.728-6.457 1.516-14.713-4.941-18.441a13.47 13.47 0 0 0-11.413-.978 1 1 0 0 0 .69 1.877 11.47 11.47 0 0 1 9.723.833c5.5 3.176 7.385 10.209 4.209 15.709m-21.65-12.5L2.011 7.48c-.954-.55-.878-1.275.172-1.617l3.551-1.155a.873.873 0 0 1 1.15.664l.776 3.653c.23 1.083-.36 1.51-1.315.958l-1.3-.751c-3.176 5.5-1.291 12.533 4.209 15.709a11.47 11.47 0 0 0 9.723.833 1 1 0 0 1 .69 1.877 13.47 13.47 0 0 1-11.413-.978C1.797 22.945-.415 14.689 3.313 8.232"/></svg>