<svg width="18" height="18" viewBox="0 0 18 18" fill="none" xmlns="http://www.w3.org/2000/svg">
<path d="M15 8.24954C14.8166 6.9297 14.2043 5.70678 13.2575 4.76916C12.3107 3.83153 11.0818 3.23122 9.76025 3.0607C8.43869 2.89018 7.09772 3.1589 5.9439 3.82547C4.79009 4.49204 3.88744 5.51949 3.375 6.74954M3 3.74954V6.74954H6M3 9.74976C3.18342 11.0696 3.7957 12.2925 4.74252 13.2301C5.68934 14.1678 6.91818 14.7681 8.23975 14.9386C9.56131 15.1091 10.9023 14.8404 12.0561 14.1738C13.2099 13.5072 14.1126 12.4798 14.625 11.2498M15 14.2498V11.2498H12" stroke="white" stroke-width="1.5" stroke-linecap="round" stroke-linejoin="round"/>
</svg>
