<svg width="20" height="20" viewBox="0 0 20 20" fill="none" xmlns="http://www.w3.org/2000/svg">
<g clip-path="url(#clip0_3770_4378)">
<path d="M9.16602 10.0013C9.16602 10.2223 9.25381 10.4343 9.41009 10.5906C9.56637 10.7468 9.77834 10.8346 9.99935 10.8346C10.2204 10.8346 10.4323 10.7468 10.5886 10.5906C10.7449 10.4343 10.8327 10.2223 10.8327 10.0013C10.8327 9.78029 10.7449 9.56833 10.5886 9.41205C10.4323 9.25577 10.2204 9.16797 9.99935 9.16797C9.77834 9.16797 9.56637 9.25577 9.41009 9.41205C9.25381 9.56833 9.16602 9.78029 9.16602 10.0013Z" stroke="#98A2B3" stroke-width="1.5" stroke-linecap="round" stroke-linejoin="round"/>
<path d="M10.0007 5.83203C9.17656 5.83203 8.37098 6.0764 7.68578 6.53424C7.00057 6.99208 6.46652 7.64283 6.15115 8.40418C5.83579 9.16554 5.75328 10.0033 5.91405 10.8116C6.07482 11.6198 6.47166 12.3623 7.05437 12.945C7.63709 13.5277 8.37952 13.9245 9.18778 14.0853C9.99603 14.2461 10.8338 14.1636 11.5952 13.8482C12.3565 13.5328 13.0073 12.9988 13.4651 12.3136C13.9229 11.6284 14.1673 10.8228 14.1673 9.9987" stroke="#98A2B3" stroke-width="1.5" stroke-linecap="round" stroke-linejoin="round"/>
<path d="M10.8342 2.54676C9.28927 2.37344 7.72865 2.6845 6.36822 3.43691C5.00779 4.18932 3.91479 5.34589 3.24042 6.74665C2.56605 8.1474 2.34363 9.7231 2.60393 11.2558C2.86424 12.7885 3.5944 14.2024 4.69342 15.302C5.79243 16.4015 7.20599 17.1324 8.73854 17.3935C10.2711 17.6546 11.8469 17.4329 13.248 16.7593C14.6491 16.0856 15.8062 14.9932 16.5593 13.6331C17.3124 12.2731 17.6243 10.7126 17.4517 9.1676" stroke="#98A2B3" stroke-width="1.5" stroke-linecap="round" stroke-linejoin="round"/>
<path d="M12.5 5V7.5H15L17.5 5H15V2.5L12.5 5Z" stroke="#98A2B3" stroke-width="1.5" stroke-linecap="round" stroke-linejoin="round"/>
<path d="M12.5 7.5L10 10" stroke="#98A2B3" stroke-width="1.5" stroke-linecap="round" stroke-linejoin="round"/>
</g>
<defs>
<clipPath id="clip0_3770_4378">
<rect width="20" height="20" fill="white"/>
</clipPath>
</defs>
</svg>
